<svg xmlns="http://www.w3.org/2000/svg" xmlns:xlink="http://www.w3.org/1999/xlink" width="840" height="322.23"><rect width="840" height="322.23" rx="0" ry="0" class="a"></rect><svg height="282.23" viewBox="0 0 80 28.223000000000003" width="800" x="20" xmlns="http://www.w3.org/2000/svg" xmlns:xlink="http://www.w3.org/1999/xlink" y="20"><style>.a{fill:rgb(247,247,247)}.b{font-family:'Fira Code',Monaco,Consolas,Menlo,'Bitstream Vera Sans Mono','Powerline Symbols',monospace}.c{fill:rgb(0,43,54);white-space:pre}.d{fill:transparent}.e{fill:rgb(101,123,131);white-space:pre}.f{fill:rgb(102,194,205)}.g{fill:rgb(42,161,152);white-space:pre}</style><g font-family="&#x27;Fira Code&#x27;,Monaco,Consolas,Menlo,&#x27;Bitstream Vera Sans Mono&#x27;,&#x27;Powerline Symbols&#x27;,monospace" font-size="1.67" class="b"><defs><symbol id="1"><text font-size="1.67" x="2.004" y="1.67" class="c">...</text></symbol><symbol id="a"><rect height="13" width="80" x="0" y="0" class="d"></rect></symbol></defs><rect height="28.223000000000003" width="80" class="a"></rect><svg x="0" y="0" width="80"><svg x="0"><use xlink:href="#a"></use><text font-size="1.67" x="0" y="1.67" class="c">#</text><text font-size="1.67" x="2.004" y="1.67" class="c">toml</text><text font-size="1.67" x="7.013999999999999" y="1.67" class="c">(24</text><text font-size="1.67" x="11.021999999999998" y="1.67" class="c">lines,</text><text font-size="1.67" x="18.035999999999998" y="1.67" class="c">1</text><text font-size="1.67" x="20.04" y="1.67" class="c">selected</text><text font-size="1.67" x="29.058" y="1.67" class="c">element)</text><use xlink:href="#1" y="2.171"></use><text font-size="1.67" x="3.006" y="6.012" class="c">3</text><text font-size="1.67" x="6.012" y="6.012" class="c">|</text><text font-size="1.67" x="3.006" y="8.183" class="c">4</text><text font-size="1.67" x="6.012" y="8.183" class="c">|</text><text font-size="1.67" x="8.016" y="8.183" class="e">title</text><text font-size="1.67" x="14.027999999999999" y="8.183" class="e">=</text><text font-size="1.67" x="16.032" y="8.183" class="e">&quot;TOML</text><text font-size="1.67" x="22.043999999999997" y="8.183" class="e">Example&quot;</text><text font-size="1.67" x="3.006" y="10.354" class="c">5</text><text font-size="1.67" x="6.012" y="10.354" class="c">|</text><rect height="2.171" width="1" x="0" y="10.855" class="f"></rect><text font-size="1.67" x="0" y="12.525" class="e">&gt;</text><text font-size="1.67" x="3.006" y="12.525" class="c">6</text><text font-size="1.67" x="6.012" y="12.525" class="c">|</text><text font-size="1.67" x="8.016" y="12.525" class="g">[owner]</text><rect height="2.171" width="1" x="0" y="13.026" class="f"></rect><text font-size="1.67" x="0" y="14.696" class="e">&gt;</text><text font-size="1.67" x="3.006" y="14.696" class="c">7</text><text font-size="1.67" x="6.012" y="14.696" class="c">|</text><text font-size="1.67" x="8.016" y="14.696" class="g">name</text><text font-size="1.67" x="13.026" y="14.696" class="g">=</text><text font-size="1.67" x="15.029999999999998" y="14.696" class="g">&quot;Tom</text><text font-size="1.67" x="20.04" y="14.696" class="g">Preston-Werner&quot;</text><rect height="2.171" width="1" x="0" y="15.196999999999997" class="f"></rect><text font-size="1.67" x="0" y="16.866999999999997" class="e">&gt;</text><text font-size="1.67" x="3.006" y="16.866999999999997" class="c">8</text><text font-size="1.67" x="6.012" y="16.866999999999997" class="c">|</text><text font-size="1.67" x="8.016" y="16.866999999999997" class="g">dob</text><text font-size="1.67" x="12.024" y="16.866999999999997" class="g">=</text><text font-size="1.67" x="14.027999999999999" y="16.866999999999997" class="g">1979-05-27T07:32:00-08:00</text><rect height="2.171" width="1" x="0" y="17.367999999999995" class="f"></rect><text font-size="1.67" x="0" y="19.037999999999997" class="e">&gt;</text><text font-size="1.67" x="3.006" y="19.037999999999997" class="c">9</text><text font-size="1.67" x="6.012" y="19.037999999999997" class="c">|</text><text font-size="1.67" x="2.004" y="21.209000000000003" class="c">10</text><text font-size="1.67" x="6.012" y="21.209000000000003" class="c">|</text><text font-size="1.67" x="8.016" y="21.209000000000003" class="e">[database]</text><text font-size="1.67" x="2.004" y="23.380000000000003" class="c">11</text><text font-size="1.67" x="6.012" y="23.380000000000003" class="c">|</text><text font-size="1.67" x="8.016" y="23.380000000000003" class="e">enabled</text><text font-size="1.67" x="16.032" y="23.380000000000003" class="e">=</text><text font-size="1.67" x="18.035999999999998" y="23.380000000000003" class="e">true</text><text font-size="1.67" x="2.004" y="25.550999999999995" class="c">12</text><text font-size="1.67" x="6.012" y="25.550999999999995" class="c">|</text><text font-size="1.67" x="8.016" y="25.550999999999995" class="e">ports</text><text font-size="1.67" x="14.027999999999999" y="25.550999999999995" class="e">=</text><text font-size="1.67" x="16.032" y="25.550999999999995" class="e">[</text><text font-size="1.67" x="18.035999999999998" y="25.550999999999995" class="e">8000,</text><text font-size="1.67" x="24.048" y="25.550999999999995" class="e">8001,</text><text font-size="1.67" x="30.059999999999995" y="25.550999999999995" class="e">8002</text><text font-size="1.67" x="35.06999999999999" y="25.550999999999995" class="e">]</text><use xlink:href="#1" y="26.052"></use></svg></svg></g></svg></svg>