<svg xmlns="http://www.w3.org/2000/svg" xmlns:xlink="http://www.w3.org/1999/xlink" width="840" height="691.3"><rect width="840" height="691.3" rx="0" ry="0" class="a"></rect><svg height="651.3" viewBox="0 0 80 65.13" width="800" x="20" xmlns="http://www.w3.org/2000/svg" xmlns:xlink="http://www.w3.org/1999/xlink" y="20"><style>.a{fill:rgb(22,27,34)}.b{font-family:'Fira Code',Monaco,Consolas,Menlo,'Bitstream Vera Sans Mono','Powerline Symbols',monospace}.c{fill:transparent}.d{fill:rgb(117,113,94);white-space:pre}.e{fill:rgb(201,209,217);white-space:pre}</style><g font-family="&#x27;Fira Code&#x27;,Monaco,Consolas,Menlo,&#x27;Bitstream Vera Sans Mono&#x27;,&#x27;Powerline Symbols&#x27;,monospace" font-size="1.67" class="b"><defs><symbol id="a"><rect height="30" width="80" x="0" y="0" class="c"></rect></symbol></defs><rect height="65.13" width="80" class="a"></rect><svg x="0" y="0" width="80"><svg x="0"><use xlink:href="#a"></use><text font-size="1.67" x="0" y="1.67" class="d">#</text><text font-size="1.67" x="2.004" y="1.67" class="d">toml</text><text font-size="1.67" x="7.013999999999999" y="1.67" class="d">(29</text><text font-size="1.67" x="11.021999999999998" y="1.67" class="d">lines)</text><text font-size="1.67" x="1.002" y="3.8409999999999997" class="d">1</text><text font-size="1.67" x="3.006" y="3.8409999999999997" class="d">|</text><text font-size="1.67" x="5.01" y="3.8409999999999997" class="e">#</text><text font-size="1.67" x="7.013999999999999" y="3.8409999999999997" class="e">This</text><text font-size="1.67" x="12.024" y="3.8409999999999997" class="e">is</text><text font-size="1.67" x="15.029999999999998" y="3.8409999999999997" class="e">a</text><text font-size="1.67" x="17.034" y="3.8409999999999997" class="e">TOML</text><text font-size="1.67" x="22.043999999999997" y="3.8409999999999997" class="e">document</text><text font-size="1.67" x="1.002" y="6.012" class="d">2</text><text font-size="1.67" x="3.006" y="6.012" class="d">|</text><text font-size="1.67" x="1.002" y="8.183" class="d">3</text><text font-size="1.67" x="3.006" y="8.183" class="d">|</text><text font-size="1.67" x="5.01" y="8.183" class="e">title</text><text font-size="1.67" x="11.021999999999998" y="8.183" class="e">=</text><text font-size="1.67" x="13.026" y="8.183" class="e">&quot;TOML</text><text font-size="1.67" x="19.037999999999997" y="8.183" class="e">Example&quot;</text><text font-size="1.67" x="1.002" y="10.354" class="d">4</text><text font-size="1.67" x="3.006" y="10.354" class="d">|</text><text font-size="1.67" x="1.002" y="12.525" class="d">5</text><text font-size="1.67" x="3.006" y="12.525" class="d">|</text><text font-size="1.67" x="5.01" y="12.525" class="e">[owner]</text><text font-size="1.67" x="1.002" y="14.696" class="d">6</text><text font-size="1.67" x="3.006" y="14.696" class="d">|</text><text font-size="1.67" x="5.01" y="14.696" class="e">name</text><text font-size="1.67" x="10.02" y="14.696" class="e">=</text><text font-size="1.67" x="12.024" y="14.696" class="e">&quot;Tom</text><text font-size="1.67" x="17.034" y="14.696" class="e">Preston-Werner&quot;</text><text font-size="1.67" x="1.002" y="16.866999999999997" class="d">7</text><text font-size="1.67" x="3.006" y="16.866999999999997" class="d">|</text><text font-size="1.67" x="5.01" y="16.866999999999997" class="e">dob</text><text font-size="1.67" x="9.017999999999999" y="16.866999999999997" class="e">=</text><text font-size="1.67" x="11.021999999999998" y="16.866999999999997" class="e">1979-05-27T07:32:00-08:00</text><text font-size="1.67" x="1.002" y="19.037999999999997" class="d">8</text><text font-size="1.67" x="3.006" y="19.037999999999997" class="d">|</text><text font-size="1.67" x="1.002" y="21.209000000000003" class="d">9</text><text font-size="1.67" x="3.006" y="21.209000000000003" class="d">|</text><text font-size="1.67" x="5.01" y="21.209000000000003" class="e">[database]</text><text font-size="1.67" x="0" y="23.380000000000003" class="d">10</text><text font-size="1.67" x="3.006" y="23.380000000000003" class="d">|</text><text font-size="1.67" x="5.01" y="23.380000000000003" class="e">enabled</text><text font-size="1.67" x="13.026" y="23.380000000000003" class="e">=</text><text font-size="1.67" x="15.029999999999998" y="23.380000000000003" class="e">true</text><text font-size="1.67" x="0" y="25.550999999999995" class="d">11</text><text font-size="1.67" x="3.006" y="25.550999999999995" class="d">|</text><text font-size="1.67" x="5.01" y="25.550999999999995" class="e">ports</text><text font-size="1.67" x="11.021999999999998" y="25.550999999999995" class="e">=</text><text font-size="1.67" x="13.026" y="25.550999999999995" class="e">[</text><text font-size="1.67" x="15.029999999999998" y="25.550999999999995" class="e">8000,</text><text font-size="1.67" x="21.041999999999998" y="25.550999999999995" class="e">8001,</text><text font-size="1.67" x="27.054" y="25.550999999999995" class="e">8002</text><text font-size="1.67" x="32.064" y="25.550999999999995" class="e">]</text><text font-size="1.67" x="0" y="27.722" class="d">12</text><text font-size="1.67" x="3.006" y="27.722" class="d">|</text><text font-size="1.67" x="5.01" y="27.722" class="e">data</text><text font-size="1.67" x="10.02" y="27.722" class="e">=</text><text font-size="1.67" x="12.024" y="27.722" class="e">[</text><text font-size="1.67" x="14.027999999999999" y="27.722" class="e">[&quot;delta&quot;,</text><text font-size="1.67" x="24.048" y="27.722" class="e">&quot;phi&quot;],</text><text font-size="1.67" x="32.064" y="27.722" class="e">[3.14]</text><text font-size="1.67" x="39.077999999999996" y="27.722" class="e">]</text><text font-size="1.67" x="0" y="29.893" class="d">13</text><text font-size="1.67" x="3.006" y="29.893" class="d">|</text><text font-size="1.67" x="5.01" y="29.893" class="e">temp_targets</text><text font-size="1.67" x="18.035999999999998" y="29.893" class="e">=</text><text font-size="1.67" x="20.04" y="29.893" class="e">{</text><text font-size="1.67" x="22.043999999999997" y="29.893" class="e">cpu</text><text font-size="1.67" x="26.052" y="29.893" class="e">=</text><text font-size="1.67" x="28.055999999999997" y="29.893" class="e">79.5,</text><text font-size="1.67" x="34.068" y="29.893" class="e">case</text><text font-size="1.67" x="39.077999999999996" y="29.893" class="e">=</text><text font-size="1.67" x="41.082" y="29.893" class="e">72.0</text><text font-size="1.67" x="46.09199999999999" y="29.893" class="e">}</text><text font-size="1.67" x="0" y="32.064" class="d">14</text><text font-size="1.67" x="3.006" y="32.064" class="d">|</text><text font-size="1.67" x="0" y="34.235" class="d">15</text><text font-size="1.67" x="3.006" y="34.235" class="d">|</text><text font-size="1.67" x="5.01" y="34.235" class="e">[servers]</text><text font-size="1.67" x="0" y="36.406" class="d">16</text><text font-size="1.67" x="3.006" y="36.406" class="d">|</text><text font-size="1.67" x="0" y="38.577000000000005" class="d">17</text><text font-size="1.67" x="3.006" y="38.577000000000005" class="d">|</text><text font-size="1.67" x="5.01" y="38.577000000000005" class="e">[servers.alpha]</text><text font-size="1.67" x="0" y="40.748000000000005" class="d">18</text><text font-size="1.67" x="3.006" y="40.748000000000005" class="d">|</text><text font-size="1.67" x="5.01" y="40.748000000000005" class="e">ip</text><text font-size="1.67" x="8.016" y="40.748000000000005" class="e">=</text><text font-size="1.67" x="10.02" y="40.748000000000005" class="e">&quot;10.0.0.1&quot;</text><text font-size="1.67" x="0" y="42.919" class="d">19</text><text font-size="1.67" x="3.006" y="42.919" class="d">|</text><text font-size="1.67" x="5.01" y="42.919" class="e">role</text><text font-size="1.67" x="10.02" y="42.919" class="e">=</text><text font-size="1.67" x="12.024" y="42.919" class="e">&quot;frontend&quot;</text><text font-size="1.67" x="0" y="45.09" class="d">20</text><text font-size="1.67" x="3.006" y="45.09" class="d">|</text><text font-size="1.67" x="0" y="47.261" class="d">21</text><text font-size="1.67" x="3.006" y="47.261" class="d">|</text><text font-size="1.67" x="5.01" y="47.261" class="e">[servers.beta]</text><text font-size="1.67" x="0" y="49.431999999999995" class="d">22</text><text font-size="1.67" x="3.006" y="49.431999999999995" class="d">|</text><text font-size="1.67" x="5.01" y="49.431999999999995" class="e">ip</text><text font-size="1.67" x="8.016" y="49.431999999999995" class="e">=</text><text font-size="1.67" x="10.02" y="49.431999999999995" class="e">&quot;10.0.0.2&quot;</text><text font-size="1.67" x="0" y="51.603" class="d">23</text><text font-size="1.67" x="3.006" y="51.603" class="d">|</text><text font-size="1.67" x="5.01" y="51.603" class="e">role</text><text font-size="1.67" x="10.02" y="51.603" class="e">=</text><text font-size="1.67" x="12.024" y="51.603" class="e">&quot;backend&quot;</text><text font-size="1.67" x="0" y="53.774" class="d">24</text><text font-size="1.67" x="3.006" y="53.774" class="d">|</text><text font-size="1.67" x="0" y="55.945" class="d">25</text><text font-size="1.67" x="3.006" y="55.945" class="d">|</text><text font-size="1.67" x="5.01" y="55.945" class="e">[[new_aot]]</text><text font-size="1.67" x="0" y="58.11600000000001" class="d">26</text><text font-size="1.67" x="3.006" y="58.11600000000001" class="d">|</text><text font-size="1.67" x="5.01" y="58.11600000000001" class="e">x</text><text font-size="1.67" x="7.013999999999999" y="58.11600000000001" class="e">=</text><text font-size="1.67" x="9.017999999999999" y="58.11600000000001" class="e">1.0</text><text font-size="1.67" x="0" y="60.287" class="d">27</text><text font-size="1.67" x="3.006" y="60.287" class="d">|</text><text font-size="1.67" x="0" y="62.458" class="d">28</text><text font-size="1.67" x="3.006" y="62.458" class="d">|</text><text font-size="1.67" x="5.01" y="62.458" class="e">[[new_aot]]</text><text font-size="1.67" x="0" y="64.629" class="d">29</text><text font-size="1.67" x="3.006" y="64.629" class="d">|</text><text font-size="1.67" x="5.01" y="64.629" class="e">x</text><text font-size="1.67" x="7.013999999999999" y="64.629" class="e">=</text><text font-size="1.67" x="9.017999999999999" y="64.629" class="e">2.0</text></svg></svg></g></svg></svg>